<?xml version="1.0" encoding="UTF-8"?>
<svg id="Layer_1" data-name="Layer 1" xmlns="http://www.w3.org/2000/svg" viewBox="0 0 223.48 361">
  <defs>
    <style>
      .cls-1 {
        fill: #a3def9;
        stroke: #231f20;
        stroke-miterlimit: 10;
      }
    </style>
  </defs>
  <path class="cls-1" d="m117.14,140.67v-14.66c58.93-2.82,105.84-51.48,105.84-111.11h-10.8c0,53.66-42.08,97.49-95.04,100.29V.5h-10.8v114.69C53.38,112.39,11.3,68.56,11.3,14.9H.5c0,59.63,46.91,108.29,105.84,111.11v14.66C47.41,143.49.5,192.15.5,251.78h10.8c0-53.66,42.08-97.49,95.04-100.29v209.01h10.8v-209.01c52.96,2.81,95.04,46.64,95.04,100.29h10.8c0-59.63-46.91-108.29-105.84-111.11Z"/>
</svg>