<?xml version="1.0" encoding="UTF-8"?>
<svg id="Layer_2" data-name="Layer 2" xmlns="http://www.w3.org/2000/svg" viewBox="0 0 321 466.57">
  <defs>
    <style>
      .cls-1, .cls-2 {
        letter-spacing: -.02em;
      }

      .cls-3 {
        letter-spacing: -.04em;
      }

      .cls-2, .cls-4, .cls-5, .cls-6 {
        isolation: isolate;
      }

      .cls-2, .cls-6 {
        font-family: ArialMT, Arial;
        font-size: 22.5px;
      }

      .cls-4 {
        font-family: TimesNewRomanPSMT, 'Times New Roman';
        font-size: 24px;
      }

      .cls-7 {
        stroke-dasharray: 0 0 2.48 2.48;
        stroke-width: 2.48px;
      }

      .cls-7, .cls-8, .cls-9 {
        fill: none;
        stroke: #000;
      }

      .cls-8 {
        stroke-miterlimit: 2.94;
        stroke-width: 2px;
      }
    </style>
  </defs>
  <g id="svg2">
    <g id="neq-math" class="cls-5">
      <text class="cls-4" transform="translate(126.12 459.21)"><tspan class="cls-3" x="0" y="0">P</tspan><tspan x="12.46" y="0" xml:space="preserve"> ≠ N</tspan><tspan class="cls-3" x="54.96" y="0">P</tspan></text>
    </g>
    <g id="neq-diag">
      <path id="path3134" class="cls-8" d="m284.3,275.2c0,68.37-55.41,123.81-123.78,123.82-68.37,0-123.81-55.41-123.82-123.78v-.03c0-68.37,55.41-123.81,123.78-123.82,68.37,0,123.81,55.41,123.82,123.78v.03Z"/>
      <path id="path3332" class="cls-9" d="m.5,0c0,140,60,260,160,260S320.5,140,320.5,0"/>
      <g id="text3334" class="cls-5">
        <text class="cls-6" transform="translate(116.65 89.59)"><tspan x="0" y="0">NP-Hard</tspan></text>
      </g>
      <g id="text3338" class="cls-5">
        <text class="cls-6" transform="translate(92.47 215.24)"><tspan x="0" y="0">NP-Complete</tspan></text>
      </g>
      <path id="path3344" class="cls-7" d="m242.78,351.26c0,26.33-36.84,47.67-82.28,47.67s-82.28-21.34-82.28-47.67,36.84-47.67,82.28-47.67,82.28,21.34,82.28,47.67Z"/>
      <g id="text3346" class="cls-5">
        <text class="cls-2" transform="translate(152.28 359.46)"><tspan x="0" y="0">P</tspan></text>
      </g>
      <g id="text3350" class="cls-5">
        <text class="cls-6" transform="translate(56.55 283.9)"><tspan x="0" y="0">N</tspan><tspan class="cls-1" x="16.25" y="0">P</tspan></text>
      </g>
    </g>
  </g>
</svg>