<svg xmlns="http://www.w3.org/2000/svg" xmlns:xlink="http://www.w3.org/1999/xlink" version="1.1" x="0px" y="0px" viewBox="0 0 32 40" enable-background="new 0 0 32 32" xml:space="preserve"><g><path d="M11,22h3c0.6,0,1-0.4,1-1s-0.4-1-1-1h-2V4h2c0.6,0,1-0.4,1-1s-0.4-1-1-1h-3c-0.6,0-1,0.4-1,1v18C10,21.6,10.4,22,11,22z"/><path d="M29,2h-3c-0.6,0-1,0.4-1,1s0.4,1,1,1h2v16h-2c-0.6,0-1,0.4-1,1s0.4,1,1,1h3c0.6,0,1-0.4,1-1V3C30,2.4,29.6,2,29,2z"/><path d="M13,8c0,1.7,1.3,3,3,3s3-1.3,3-3s-1.3-3-3-3S13,6.3,13,8z M16,7c0.6,0,1,0.4,1,1s-0.4,1-1,1s-1-0.4-1-1S15.4,7,16,7z"/><path d="M16,13c-1.7,0-3,1.3-3,3s1.3,3,3,3s3-1.3,3-3S17.7,13,16,13z M16,17c-0.6,0-1-0.4-1-1s0.4-1,1-1s1,0.4,1,1S16.6,17,16,17z"/><path d="M24,11c1.7,0,3-1.3,3-3s-1.3-3-3-3s-3,1.3-3,3S22.3,11,24,11z M24,7c0.6,0,1,0.4,1,1s-0.4,1-1,1s-1-0.4-1-1S23.4,7,24,7z"/><path d="M24,19c1.7,0,3-1.3,3-3s-1.3-3-3-3s-3,1.3-3,3S22.3,19,24,19z M24,15c0.6,0,1,0.4,1,1s-0.4,1-1,1s-1-0.4-1-1S23.4,15,24,15   z"/><path d="M27.7,23.3c-0.4-0.4-1-0.4-1.4,0s-0.4,1,0,1.4l0.3,0.3H7V5.4l0.3,0.3C7.5,5.9,7.7,6,8,6s0.5-0.1,0.7-0.3   c0.4-0.4,0.4-1,0-1.4l-2-2c-0.4-0.4-1-0.4-1.4,0l-2,2c-0.4,0.4-0.4,1,0,1.4s1,0.4,1.4,0L5,5.4V25H3c-0.6,0-1,0.4-1,1s0.4,1,1,1h2v2   c0,0.6,0.4,1,1,1s1-0.4,1-1v-2h19.6l-0.3,0.3c-0.4,0.4-0.4,1,0,1.4c0.2,0.2,0.5,0.3,0.7,0.3s0.5-0.1,0.7-0.3l2-2   c0.4-0.4,0.4-1,0-1.4L27.7,23.3z"/></g><text x="0" y="47" fill="#000000" font-size="5px" font-weight="bold" font-family="'Helvetica Neue', Helvetica, Arial-Unicode, Arial, Sans-serif">Created by M. Oki Orlando</text><text x="0" y="52" fill="#000000" font-size="5px" font-weight="bold" font-family="'Helvetica Neue', Helvetica, Arial-Unicode, Arial, Sans-serif">from the Noun Project</text></svg>