<?xml version="1.0" encoding="UTF-8"?>
<svg id="Layer_2" data-name="Layer 2" xmlns="http://www.w3.org/2000/svg" viewBox="0 0 593.62 553.65">
  <defs>
    <style>
      .cls-1 {
        fill: #0101ff;
      }

      .cls-2 {
        fill: #01ff01;
      }

      .cls-3 {
        fill: #ff0101;
      }
    </style>
  </defs>
  <g id="Layer_1-2" data-name="Layer 1">
    <g id="red">
      <path id="cv_element" data-name="cv element" class="cls-3" d="m225.65,259.96c-66.63-38.47-89.45-123.66-50.99-190.29C213.13,3.05,298.32-19.78,364.95,18.69c66.63,38.47,89.45,123.66,50.99,190.29-12.23,21.18-29.81,38.76-50.99,50.99l-41.94-72.64c26.51-15.3,35.59-49.2,20.28-75.7-15.3-26.51-49.2-35.59-75.7-20.28-26.51,15.3-35.59,49.2-20.28,75.7,4.86,8.42,11.86,15.42,20.28,20.28l-41.94,72.64Z"/>
    </g>
    <g id="blue">
      <path id="cv_element-2" data-name="cv element" class="cls-1" d="m523.95,293.69c66.63,38.47,89.45,123.66,50.99,190.29-38.47,66.63-123.66,89.45-190.29,50.99-66.63-38.47-89.45-123.66-50.99-190.29,12.23-21.18,29.81-38.76,50.99-50.99l41.94,72.64c-26.51,15.3-35.59,49.2-20.28,75.7,15.3,26.51,49.2,35.59,75.7,20.28,26.51-15.3,35.59-49.2,20.28-75.7-4.86-8.42-11.86-15.42-20.28-20.28l41.94-72.64Z"/>
    </g>
    <g id="green">
      <path id="cv_element-3" data-name="cv element" class="cls-2" d="m278.6,414.32c0,76.93-62.37,139.3-139.3,139.3C62.37,553.62,0,491.26,0,414.32c0-76.93,62.37-139.3,139.3-139.3,24.45,0,48.47,6.44,69.65,18.66l-41.94,72.64c-26.51-15.3-60.4-6.22-75.7,20.28-15.3,26.51-6.22,60.4,20.28,75.7,26.51,15.3,60.4,6.22,75.7-20.28,4.86-8.42,7.42-17.98,7.42-27.71h83.88Z"/>
    </g>
  </g>
</svg>