<?xml version="1.0" encoding="UTF-8"?>
<svg id="Layer_2" data-name="Layer 2" xmlns="http://www.w3.org/2000/svg" viewBox="0 0 73.3 88.6">
  <defs>
    <style>
      .cls-1 {
        fill: #ee4c2c;
      }
    </style>
  </defs>
  <g id="Layer_1-2" data-name="Layer 1">
    <g id="group">
      <path id="Path" class="cls-1" d="m62.5,25.8l-6.6,6.6c10.8,10.8,10.8,28.2,0,38.8-10.8,10.8-28.2,10.8-38.8,0-10.8-10.8-10.8-28.2,0-38.8l17.1-17.1,2.4-2.4V0L10.8,25.8c-14.4,14.4-14.4,37.6,0,52,14.4,14.4,37.6,14.4,51.7,0,14.4-14.5,14.4-37.6,0-52Z"/>
      <path id="Path-1" class="cls-1" d="m54.4,19.4c0,2.65-2.15,4.8-4.8,4.8s-4.8-2.15-4.8-4.8,2.15-4.8,4.8-4.8,4.8,2.15,4.8,4.8Z"/>
    </g>
  </g>
</svg>