<?xml version="1.0" encoding="UTF-8"?>
<svg id="Layer_2" data-name="Layer 2" xmlns="http://www.w3.org/2000/svg" viewBox="0 0 100.01 108.79">
  <defs>
    <style>
      .cls-1 {
        fill: #005f9e;
        stroke-width: 0px;
      }
    </style>
  </defs>
  <g id="Layer_1-2" data-name="Layer 1">
    <g>
      <path class="cls-1" d="m100.01,23.69L64.6,3.28s-5.61-3.28-14.56-3.28-14.72,3.38-14.72,3.38L2.52,22.15l49.9,28.68v57.96l32.84-18.75s5.87-3.24,10.33-10.94c3.93-6.78,4.42-13.34,4.42-13.34V23.69h0Zm-53.4,9.44s7.32-1.35,13.51,2.22c6.19,3.57,9.84,5.67,9.84,5.67,0,0,.01,4.97.01,12.4,0,5.95-5.04,12.12-5.04,12.12v-21.83s-18.32-10.58-18.32-10.58Zm29.02,47.88l-10.69,6.13v-5.75l8.32-4.76c7.92-5.71,9.23-14.13,9.23-17.05l-.03-25.86-22.69-13.06s-3.45-2.26-9.65-2.26-9.58,2.09-9.58,2.09l-7.97,4.58-5.03-2.91,11.01-6.29s4.31-2.39,11.53-2.39c6.63,0,11.79,2.59,11.79,2.59l25.62,14.8-.03,28.22c.18,4.34-1.84,14.94-11.83,21.92Z"/>
      <path class="cls-1" d="m0,40.92l34.98,20.07-.03,5.98-19.9-11.41-12.52,7.12,32.4,18.67.02,5.76L.24,67.14c.09,2.34,2.21,9.55,6.27,15.13,4.12,5.65,8.82,8.05,8.82,8.05l32.08,18.47v-55.08L.03,26.5l-.03,14.42Z"/>
    </g>
  </g>
</svg>