<?xml version="1.0" encoding="utf-8"?>
<!-- Generator: Adobe Illustrator 28.0.0, SVG Export Plug-In . SVG Version: 6.00 Build 0)  -->
<svg version="1.1"
	 id="svg2" xmlns:dc="http://purl.org/dc/elements/1.1/" xmlns:cc="http://creativecommons.org/ns#" xmlns:svg="http://www.w3.org/2000/svg" xmlns:rdf="http://www.w3.org/1999/02/22-rdf-syntax-ns#"
	 xmlns="http://www.w3.org/2000/svg" xmlns:xlink="http://www.w3.org/1999/xlink" x="0px" y="0px" viewBox="0 0 800 500"
	 style="enable-background:new 0 0 800 500;" xml:space="preserve">
<style type="text/css">
	.st0{font-family:'TimesNewRomanPSMT';}
	.st1{font-size:24px;}
	.st2{fill:none;stroke:#000000;stroke-width:2;stroke-miterlimit:2.9425;}
	.st3{fill:none;stroke:#000000;}
	.st4{font-family:'ArialMT';}
	.st5{font-size:22.5021px;}
	.st6{fill:none;stroke:#000000;stroke-width:2.4824;stroke-dasharray:2.4824,2.4824;}
</style>
<text transform="matrix(1 0 0 1 165.623 459.2136)" class="st0 st1">P ≠ NP</text>
<g id="neq-diag">
	<path id="path3134" class="st2" d="M323.8,275.2c0,68.4-55.4,123.8-123.8,123.8S76.2,343.6,76.2,275.2c0,0,0,0,0,0
		c0-68.4,55.4-123.8,123.8-123.8S323.8,206.8,323.8,275.2C323.8,275.2,323.8,275.2,323.8,275.2z"/>
	<path id="path3332" class="st3" d="M40,0c0,140,60,260,160,260S360,140,360,0"/>
	<text transform="matrix(1 0 0 1 156.1549 89.5924)" class="st4 st5">NP-Hard</text>
	<text transform="matrix(1 0 0 1 131.9663 215.2429)" class="st4 st5">NP-Complete</text>
	<path id="path3344" class="st6" d="M282.3,351.3c0,26.3-36.8,47.7-82.3,47.7s-82.3-21.3-82.3-47.7c0-26.3,36.8-47.7,82.3-47.7
		S282.3,324.9,282.3,351.3z"/>
	<text transform="matrix(1 0 0 1 191.7815 359.4598)" class="st4 st5">P</text>
	<text transform="matrix(1 0 0 1 96.0457 283.8967)" class="st4 st5">NP</text>
</g>
</svg>
